<svg width="16" height="16" viewBox="0 0 16 16" fill="none" xmlns="http://www.w3.org/2000/svg">
<path d="M13.6 0H2.4C1.76348 0 1.15303 0.252856 0.702944 0.702944C0.252856 1.15303 0 1.76348 0 2.4V13.6C0 14.2365 0.252856 14.847 0.702944 15.2971C1.15303 15.7471 1.76348 16 2.4 16H13.6C14.2365 16 14.847 15.7471 15.2971 15.2971C15.7471 14.847 16 14.2365 16 13.6V2.4C16 1.76348 15.7471 1.15303 15.2971 0.702944C14.847 0.252856 14.2365 0 13.6 0ZM14.4 13.6C14.4 13.8122 14.3157 14.0157 14.1657 14.1657C14.0157 14.3157 13.8122 14.4 13.6 14.4H2.4C2.18783 14.4 1.98434 14.3157 1.83431 14.1657C1.68429 14.0157 1.6 13.8122 1.6 13.6V2.4C1.6 2.18783 1.68429 1.98434 1.83431 1.83431C1.98434 1.68429 2.18783 1.6 2.4 1.6H13.6C13.8122 1.6 14.0157 1.68429 14.1657 1.83431C14.3157 1.98434 14.4 2.18783 14.4 2.4V13.6ZM8 4.8C7.57565 4.8 7.16869 4.96857 6.86863 5.26863C6.56857 5.56869 6.4 5.97565 6.4 6.4C6.40169 6.67922 6.47641 6.95314 6.61676 7.19454C6.7571 7.43593 6.95818 7.63639 7.2 7.776V10.4C7.2 10.6122 7.28429 10.8157 7.43431 10.9657C7.58434 11.1157 7.78783 11.2 8 11.2C8.21217 11.2 8.41566 11.1157 8.56569 10.9657C8.71571 10.8157 8.8 10.6122 8.8 10.4V7.776C9.04182 7.63639 9.2429 7.43593 9.38324 7.19454C9.52359 6.95314 9.59831 6.67922 9.6 6.4C9.6 5.97565 9.43143 5.56869 9.13137 5.26863C8.83131 4.96857 8.42435 4.8 8 4.8Z" fill="#01002C"/>
</svg>
