<svg width="16" height="16" viewBox="0 0 16 16" fill="none" xmlns="http://www.w3.org/2000/svg">
<path d="M6.64 4.17778C6.56589 4.25913 6.50705 4.35602 6.46689 4.46283C6.42673 4.56964 6.40605 4.68424 6.40605 4.8C6.40605 4.91576 6.42673 5.03036 6.46689 5.13717C6.50705 5.24398 6.56589 5.34087 6.64 5.42222L8.16 7.11111H0.8C0.36 7.11111 0 7.51111 0 8C0 8.48889 0.36 8.88889 0.8 8.88889H8.16L6.64 10.5778C6.56589 10.6591 6.50705 10.756 6.46689 10.8628C6.42673 10.9696 6.40605 11.0842 6.40605 11.2C6.40605 11.3158 6.42673 11.4304 6.46689 11.5372C6.50705 11.644 6.56589 11.7409 6.64 11.8222C6.952 12.1689 7.448 12.1689 7.76 11.8222L10.632 8.63111C10.7062 8.54888 10.765 8.4512 10.8051 8.34367C10.8453 8.23613 10.866 8.12086 10.866 8.00445C10.866 7.88803 10.8453 7.77276 10.8051 7.66522C10.765 7.55769 10.7062 7.46001 10.632 7.37778L7.76 4.17778C7.68678 4.09543 7.59958 4.03005 7.50345 3.98543C7.40732 3.94081 7.30418 3.91783 7.2 3.91783C7.09582 3.91783 6.99268 3.94081 6.89655 3.98543C6.80042 4.03005 6.71322 4.09543 6.64 4.17778ZM14.4 14.2222H8.8C8.36 14.2222 8 14.6222 8 15.1111C8 15.6 8.36 16 8.8 16H14.4C15.28 16 16 15.2 16 14.2222V1.77778C16 0.8 15.28 0 14.4 0H8.8C8.36 0 8 0.4 8 0.888889C8 1.37778 8.36 1.77778 8.8 1.77778H14.4V14.2222Z" fill="#01002C"/>
</svg>
